<?xml version="1.0" encoding="UTF-8" standalone="no"?>
<!-- Created with Inkscape (http://www.inkscape.org/) -->

<svg
   xmlns:dc="http://purl.org/dc/elements/1.1/"
   xmlns:cc="http://creativecommons.org/ns#"
   xmlns:rdf="http://www.w3.org/1999/02/22-rdf-syntax-ns#"
   xmlns:svg="http://www.w3.org/2000/svg"
   xmlns="http://www.w3.org/2000/svg"
   xmlns:sodipodi="http://sodipodi.sourceforge.net/DTD/sodipodi-0.dtd"
   xmlns:inkscape="http://www.inkscape.org/namespaces/inkscape"
   width="210mm"
   height="297mm"
   viewBox="0 0 210 297"
   version="1.1"
   id="svg4892"
   inkscape:version="0.92.3 (2405546, 2018-03-11)"
   sodipodi:docname="castor.svg">
  <defs
     id="defs4886" />
  <sodipodi:namedview
     id="base"
     pagecolor="#ffffff"
     bordercolor="#666666"
     borderopacity="1.0"
     inkscape:pageopacity="0.0"
     inkscape:pageshadow="2"
     inkscape:zoom="0.35"
     inkscape:cx="400"
     inkscape:cy="560"
     inkscape:document-units="mm"
     inkscape:current-layer="layer1"
     showgrid="false"
     inkscape:window-width="1366"
     inkscape:window-height="708"
     inkscape:window-x="0"
     inkscape:window-y="0"
     inkscape:window-maximized="1" />
  <metadata
     id="metadata4889">
    <rdf:RDF>
      <cc:Work
         rdf:about="">
        <dc:format>image/svg+xml</dc:format>
        <dc:type
           rdf:resource="http://purl.org/dc/dcmitype/StillImage" />
        <dc:title></dc:title>
      </cc:Work>
    </rdf:RDF>
  </metadata>
  <g
     inkscape:label="Layer 1"
     inkscape:groupmode="layer"
     id="layer1">
    <path
       inkscape:connector-curvature="0"
       style="fill:#231f20;stroke-width:0.47254732"
       d="m 84.131522,18.33661 c 2.658095,2.768605 4.014774,6.331152 5.485827,9.439575 7.522004,-3.845093 16.967771,-2.995966 25.054461,-1.582104 -0.0554,0.22562 0.0573,0.282783 0.16957,0.395301 1.24424,-0.904431 0.792,-2.373599 1.58397,-3.787461 4.97832,-6.613758 13.46194,-9.15935 21.6063,-7.915161 6.50273,2.035751 10.34972,7.745073 11.87605,14.133912 0.67951,6.275905 -2.1487,12.210623 -6.84248,15.715955 6.9573,6.501297 14.02663,13.45624 15.43905,22.728112 1.58354,7.178966 0.33934,14.923978 -5.37142,19.956168 -2.54564,2.261144 -5.77027,3.617794 -9.10601,4.409765 -0.73674,0.677198 -2.20583,1.016953 -3.39477,0.677198 l -0.16976,-0.112524 v 0.904436 c 5.26084,11.023588 9.22036,22.614218 13.34757,34.090008 9.33275,-4.80482 23.75494,-7.29325 32.6355,0 8.08673,7.06788 11.59395,17.8089 8.31356,28.2106 -0.73623,3.28043 -1.41387,6.67099 -2.99739,9.66691 5.71121,0.6796 11.70642,4.46704 15.10119,9.15942 0.67714,3.11033 1.30141,6.16153 -1.3586,8.36738 l -2.65808,1.63928 c 0,1.8661 -0.39529,4.07003 -2.03621,5.48389 -1.35668,1.35672 -3.33709,1.18704 -4.97641,1.7518 0.5096,1.63922 -0.56437,3.50529 -2.20583,4.29728 -6.73003,2.26116 -13.96988,-1.07409 -21.3218,-0.79199 v -0.16976 l -5.82553,-0.50785 c -9.27563,5.25713 -17.75928,11.92802 -28.84572,12.38024 3.78937,8.70719 11.14171,16.79011 14.70617,26.00478 4.69377,7.23756 8.25631,15.83034 6.44739,24.87535 -2.99733,14.53078 -19.28748,20.63517 -31.33364,25.44194 -10.51984,2.37376 -19.23077,2.03414 -29.920273,2.82606 -17.476636,-1.809 -33.820157,-3.845 -48.299004,-14.52895 l -0.566583,0.22506 h 0.284453 c -1.923736,-1.24229 -3.734537,-4.07021 -5.1484,-5.65211 -1.639268,-3.73244 -4.241583,-7.35047 -4.919218,-11.30809 -0.339755,-4.91728 0.2254,-10.40169 2.488436,-14.7562 0.224909,-2.31659 1.583506,-3.90056 2.205847,-5.93427 1.131279,-4.24014 5.655446,-5.93659 7.40907,-9.83892 6.900145,-5.42673 11.98899,-13.73694 17.477162,-20.57753 -6.902031,-2.0343 -13.519575,-5.48437 -19.797366,-9.44193 -2.318319,0.73666 -5.088866,-2.26113 -7.125067,0.39711 -6.844376,0.33994 -13.17982,2.99597 -19.965124,3.95758 -1.866086,-0.22754 -3.507238,-0.79203 -4.694279,-2.43129 -1.640682,-1.63879 -1.753624,-4.40976 -0.961632,-6.61375 -1.074103,-1.58354 -2.827721,-3.2228 -3.619715,-5.08888 -1.413861,-2.43124 2.940665,-5.59686 -0.791986,-6.61375 -2.6580825,-2.26161 -3.5072522,-5.65404 -2.1500954,-9.04693 1.0759914,-3.27806 4.2415844,-5.99191 7.6916524,-6.55658 -2.826306,-8.70719 -1.356679,-19.3357 1.301398,-27.70308 2.942079,-5.70933 7.069776,-12.77721 14.139558,-13.34193 7.636366,-2.48653 14.875788,1.13132 21.153575,3.39246 C 57.32237,113.25552 62.413118,102.68423 68.069021,92.112849 62.300658,88.042308 54.664289,86.458833 51.383867,78.94058 45.558301,66.050446 55.286158,54.460283 62.413118,44.341132 58.453642,40.610406 52.797727,35.86082 54.608531,29.642069 c 0.90492,-3.957547 2.826298,-8.197286 5.938498,-10.628518 5.203695,-2.430813 10.46218,-6.728122 16.684709,-4.46698 2.713817,0.509607 4.354514,2.600903 6.90012,3.789845"
       id="path2" />
    <path
       inkscape:connector-curvature="0"
       style="fill:#c7a68e;stroke-width:0.47254732"
       d="m 80.567118,19.976341 c 2.827743,3.618267 5.60065,7.293272 5.655925,12.098161 -1.187061,0.62183 -1.866098,0.95974 -2.828182,2.034263 -0.0554,1.131313 0,2.883028 0.962084,3.392456 0.679037,0.39709 1.695985,-0.509608 1.866098,-1.244251 6.222513,-5.031654 14.761447,-6.556544 22.792847,-6.33115 -0.16957,0 -0.2248,0.169681 -0.39506,0.282783 0.33975,0.28219 0.84917,0.05953 1.35668,0.112524 -0.11249,0.397092 0.11473,0.566759 0.39697,0.791977 5.76839,-0.452455 10.18007,1.921383 15.04402,4.354518 0.90446,-0.567355 1.52679,-1.358556 0.96162,-2.433135 l -2.82774,-2.316448 c 0.62188,-0.509608 -0.39697,-0.849128 -0.39697,-1.301406 -1.01691,-0.507817 -1.8089,-1.411954 -2.99782,-1.356647 0.73666,-0.677672 -0.50754,-0.564973 -0.39507,-1.242346 -0.50941,-3.167481 3.16749,-5.03213 5.26088,-6.841057 4.74955,-1.978536 11.25466,-3.222785 15.83599,0 3.50726,2.995966 5.25897,7.631185 4.69382,12.49323 -0.11249,3.787463 -2.0929,7.462942 -5.09077,10.119091 -0.62186,-0.677611 -2.03621,-0.959742 -3.05312,-0.564977 -0.79199,0.282192 -1.18892,1.300927 -0.96163,1.923294 4.4117,2.43075 7.29469,7.858002 11.31135,10.514151 6.39074,6.728121 8.87919,16.734815 6.27827,25.440044 -1.86655,4.239737 -5.9385,8.312123 -10.577,9.102253 -1.63926,0.396497 -3.16751,-0.225618 -4.467,0.961591 -1.13178,-1.582048 -1.81081,-5.032132 -4.18677,-4.409771 -0.62188,0 -1.0741,0.679039 -1.35668,1.186563 0.67951,3.505334 3.16747,5.766473 4.58179,8.989739 5.25851,11.420489 9.89754,22.953499 13.34755,35.051679 v 2.26113 l -0.17032,-0.17032 c 0.39531,4.86206 1.41384,10.79868 1.3014,16.16823 l 1.1299,0.79198 c -0.0537,-1.24233 1.58346,0.11248 1.35853,-1.18702 h 0.33994 c 0.45246,-5.93617 0.90442,-12.77721 -0.33994,-17.86417 5.03357,-3.16611 11.36668,-4.74967 18.0414,-4.74967 7.01255,-0.28278 13.46047,4.1273 16.45831,9.83663 5.77029,12.7219 0.3965,26.11955 -6.22057,36.6909 -8.93635,13.4544 -23.02012,22.16155 -36.5931,28.66282 -2.94257,1.18706 -6.22255,2.43121 -9.44531,1.75363 -0.0571,0.62188 -0.79198,0.50781 -1.35857,0.50781 -2.48841,-6.27396 -5.71119,-11.58824 -5.99379,-18.82627 0.33787,-0.22508 0.45222,-0.56439 0.33787,-0.95975 -2.09148,-0.84917 -3.78796,-1.92137 -5.71121,-3.33572 -2.15056,-1.13124 -4.58135,-1.92321 -7.01449,-1.58344 -9.16079,-5.19997 -19.228412,-3.84327 -28.673723,-1.1299 -4.694286,2.31692 -9.955141,4.52277 -12.556041,9.44003 -1.131297,5.03174 -4.693837,9.10228 -6.277802,13.73884 -1.526253,-2.48833 -4.63845,-1.97851 -6.787128,-3.3928 -6.730018,-2.4308 -12.385931,-7.34816 -19.230299,-9.55397 -14.591773,-9.55446 -27.260289,-24.02622 -24.262449,-43.13512 0.677157,-6.27588 3.110303,-12.3821 7.294707,-17.52629 7.409541,-5.93473 17.816451,-3.05312 25.451397,0.73437 -0.170147,0.90631 -0.395064,1.86608 -0.56515,2.82818 0.112934,0.22509 0.339758,0.22509 0.56515,0.22509 -0.56515,5.03213 -0.452216,9.89417 -0.67952,14.1339 0.509429,0.84913 0.906341,1.80889 1.246108,2.82822 l 0.621871,-0.79203 c 0,0.22507 -0.226827,0.62187 0.170147,0.79203 0.282128,0.16789 0.677159,-0.22754 0.507521,-0.56677 h -0.112468 v -0.62189 h 0.112468 c 0,0.45245 -0.05537,0.96166 0.396969,1.18894 0.791986,-8.08529 0.339276,-16.62233 3.392429,-23.80275 1.019274,-0.22561 0.396961,-1.29949 0.567043,-2.03433 l -0.33975,-0.79195 c 5.20368,-10.91114 7.804569,-23.008815 17.531959,-31.658799 -0.564653,-1.921325 3.110314,-3.505335 0.962123,-4.861984 -3.845115,-0.791977 -5.146505,7.462942 -8.76622,3.392875 -2.940685,-1.414338 -6.334978,-3.392875 -8.993046,-5.258955 -4.015242,-3.843244 -6.390738,-8.64998 -5.429102,-14.359302 2.091485,-11.250883 9.783152,-21.199885 18.436907,-28.832976 0.566575,-1.016892 -1.016948,-1.864172 -1.696455,-2.261143 -1.978567,0.792035 -4.184402,1.866138 -5.258989,4.014762 -2.827708,-1.696408 -5.655905,-4.524129 -6.617529,-7.5754 -0.396984,-3.675005 0.33785,-7.689768 2.99784,-9.951326 0.45221,-2.033844 2.997841,-2.430812 4.127219,-3.787521 3.78982,-2.995907 10.859599,-3.335662 14.931533,-0.225622"
       id="path4" />
    <path
       inkscape:connector-curvature="0"
       style="fill:#b38a6e;stroke-width:0.47254732"
       d="m 18.12614,165.04362 c 1.131748,2.31828 2.036205,4.69189 3.223245,6.95304 -2.488434,0.56498 -4.92158,2.37409 -6.617549,4.35268 -1.808913,-1.24233 -1.921855,-3.33527 -2.036207,-5.25711 0.509427,-2.77056 2.318313,-5.87901 5.430511,-6.04861"
       id="path16" />
    <path
       inkscape:connector-curvature="0"
       style="fill:#b38a6e;stroke-width:0.47254732"
       d="m 204.03476,178.04527 c -0.33936,1.41384 -0.79158,2.82628 -2.15013,3.56254 -2.03623,-5.03167 -6.44599,-6.89779 -11.085,-8.81959 -0.79151,-0.39708 -2.71527,0.11249 -2.26301,-1.18706 l 1.86655,-3.50489 c 5.20321,1.01693 12.72706,3.78743 13.63159,9.949"
       id="path18" />
    <path
       inkscape:connector-curvature="0"
       style="fill:#b38a6e;stroke-width:0.47254732"
       d="m 27.234016,178.78009 v 0.39708 c -4.016654,0.62188 -7.749305,2.88303 -10.181973,6.04908 -1.808916,-2.8282 0.226825,-5.25897 1.471036,-7.68832 1.188933,-1.75364 3.28042,-2.1487 5.091224,-2.71529 0.961632,1.58352 2.54514,2.7706 3.619713,3.95762"
       id="path32" />
    <path
       inkscape:connector-curvature="0"
       style="fill:#b38a6e;stroke-width:0.47254732"
       d="m 198.49273,183.18942 c 0.56495,1.07411 0.679,3.05314 -0.11249,4.07007 -0.79196,1.58395 -1.92374,0.62231 -3.11029,1.18704 -1.01928,-5.5397 -7.0717,-7.85798 -11.42622,-9.66693 1.4711,-1.01689 2.09343,-5.82179 4.4689,-3.16556 3.84516,0.96163 9.04835,3.22278 10.18012,7.57538"
       id="path34" />
    <path
       inkscape:connector-curvature="0"
       style="fill:#bc977c;stroke-width:0.47254732"
       d="m 124.23191,184.659 1.58398,1.07459 c 2.99595,16.45221 12.2716,30.07668 20.69991,43.92846 4.07198,8.47989 11.08455,16.95974 8.25635,27.13655 -1.41386,10.45888 -12.16051,15.49051 -20.36015,20.18297 -10.91633,5.93663 -23.41471,4.18274 -34.953392,5.82179 -14.931557,-1.18693 -29.580494,-2.82613 -42.701259,-10.74152 -7.126957,-3.16569 -10.801953,-10.34595 -13.34757,-16.96016 -1.018809,-7.91518 1.979029,-15.37807 5.825564,-21.42719 4.581817,-8.08339 12.556063,-13.45484 17.929387,-20.97494 5.033568,-7.6307 11.536759,-14.132 13.177475,-23.17705 0.622312,-4.69189 5.711174,-5.93615 9.105971,-8.48177 10.122902,-3.90037 21.434284,-2.88348 30.709914,2.26118 l 4.07382,1.3567"
       id="path42" />
    <path
       inkscape:connector-curvature="0"
       style="fill:#b38a6e;stroke-width:0.47254732"
       d="m 191.93141,189.12604 c 0.39529,0.84727 0.84723,2.26163 0.39529,3.4482 -2.77056,2.82818 -5.6559,0.73476 -8.70909,0.56736 -3.90224,-0.67957 -8.42834,-0.96211 -12.61271,-1.47158 3.61972,-3.22274 7.69162,-6.9535 11.08457,-10.79819 3.95945,2.1487 8.93769,3.33719 9.84217,8.25451"
       id="path50" />
    <path
       inkscape:connector-curvature="0"
       style="fill:#b38a6e;stroke-width:0.47254732"
       d="m 40.751231,190.71001 c -2.432674,0 -3.11031,2.20398 -5.655918,1.63922 -2.263032,0.8473 -4.1863,0.56441 -6.61708,1.7518 -2.433148,0.11249 -4.921104,1.18656 -7.692124,1.07411 -1.923263,-1.24425 -1.074097,-4.1273 -0.791988,-6.21875 0.33976,-3.44818 3.563008,-4.91735 6.050964,-6.55844 1.131749,-0.33757 2.375494,0 3.224664,-0.95984 3.337602,3.95763 7.804591,5.99196 11.481482,9.2719"
       id="path56" />
    <path
       inkscape:connector-curvature="0"
       style="fill:#231f20;stroke-width:0.47254732"
       d="m 112.92008,193.309 c -2.03809,1.47106 -4.35643,3.39291 -6.33496,4.91924 l 9.04833,5.99377 6.44791,-3.78982 c 1.41384,-0.28219 2.71525,0.5096 3.1103,1.75361 -0.79199,1.46964 -3.22327,1.63932 -4.69428,2.82636 l -2.03621,1.30135 c 2.43314,2.14817 5.43098,4.35218 6.95733,7.0088 0.22725,1.41386 -1.69646,0.62188 -1.69646,1.86614 -2.43269,-2.65619 -5.14605,-4.91734 -8.08859,-6.95357 -4.58137,3.67499 -9.10552,7.57539 -12.83817,11.81561 0.62237,1.18706 2.03619,1.13126 2.99783,1.92133 l 12.10337,7.91524 c 2.99783,-2.37367 6.10814,-4.29549 8.87868,-7.12319 1.64117,-1.01698 2.43316,0.79196 3.33762,1.46912 -2.31881,3.22324 -6.33548,4.69422 -9.21847,7.69022 3.9023,3.16564 8.48363,6.21873 12.44312,10.00651 1.86608,-1.75361 4.12722,-4.35251 7.12507,-4.35251 0.4522,0.73435 1.18896,1.41205 1.86608,2.14664 -1.92135,1.30138 -4.29687,2.43107 -6.16345,4.29724 1.07459,2.60088 5.76837,4.80491 4.29737,8.64984 -0.39508,1.07429 -1.63928,0.90449 -2.26113,1.69636 -1.75363,-0.45247 -0.62235,-2.88327 -0.96165,-3.6179 l -3.39478,-3.9022 c -4.80675,4.23999 -8.70906,8.8768 -12.4412,14.13392 1.8089,1.46934 3.39287,3.22292 2.14864,5.25892 -0.79198,-0.39706 -1.01879,0.73467 -1.18892,0.95988 -1.18656,-0.33994 -1.24422,-2.82607 -2.82774,-3.39089 -2.20585,2.65624 -3.67498,5.82189 -4.86391,9.04484 -1.01693,0.28218 -2.48845,1.07438 -3.39289,0 l -0.50943,-1.92154 c 1.69645,-3.33555 3.6769,-6.6711 5.76838,-9.38637 l -0.50751,-0.95983 -12.84007,-9.2719 c -4.014765,4.57964 -6.842483,9.32725 -10.349747,14.13398 1.018832,1.2423 2.884931,1.80895 3.112198,3.61792 -0.339735,0.79189 -0.849169,2.82604 -2.150559,1.46936 l -2.713363,-2.43112 c -1.698321,1.6964 -1.528698,4.80484 -4.865796,3.39274 -0.847286,-0.45243 -0.79011,-1.63909 -0.79011,-2.60082 1.187021,-0.90445 2.034306,-1.69637 2.430786,-3.05309 -4.636655,-3.78775 -10.009979,-6.67109 -15.043532,-9.94933 -1.980938,1.58191 -2.602801,4.63501 -5.431007,3.33554 -0.734333,-0.62207 -0.847286,-1.47122 -0.791507,-2.43106 1.243752,-0.62207 1.980434,-1.52655 2.827699,-2.65806 -5.203671,-3.10854 -10.914876,-5.08731 -16.40068,-7.68817 -0.339756,-0.45245 -0.114371,-1.07428 -0.169681,-1.69633 l 0.791516,-0.73469 c 6.050981,1.80897 12.159117,4.57964 17.929391,7.68807 l 10.349736,-12.77713 c -3.055005,-2.59898 -7.014491,-4.01286 -10.237254,-6.04908 -1.018834,1.47107 -2.263049,0.28455 -3.337635,0.39709 -0.791513,-0.56498 -0.961619,-1.92141 -0.564654,-2.43123 -1.188472,-0.79151 -1.640678,-2.20582 -0.621884,-3.39241 1.016948,-0.33994 2.091501,0.33938 3.053159,0.96158 L 83.564914,213.4921 c -1.017383,-0.79197 -2.431236,0.0595 -2.828168,-1.52679 0.227249,-0.90444 0.227249,-2.26115 1.471498,-2.26115 1.35667,-0.16975 2.715235,0.84921 4.014745,1.35671 L 100.53219,198.7931 c -2.205835,-1.63885 -4.919219,-2.99548 -7.91703,-3.2228 -0.906344,-0.16789 -0.621882,-1.07219 -0.961639,-1.69456 0.452206,-2.09288 2.827719,-1.75359 4.29922,-1.52632 l 7.577319,4.01287 6.27779,-4.97451 c 0.62185,-0.0537 0.79197,0.33938 1.24421,-0.11305 0.5666,0.50783 1.86799,0.90443 1.86799,2.03433"
       id="path62" />
    <path
       inkscape:connector-curvature="0"
       style="fill:#b38a6e;stroke-width:0.47254732"
       d="m 112.63559,206.08434 c -4.46696,3.05312 -8.31353,7.85797 -12.668032,11.92994 -3.337604,-1.0188 -6.844864,-4.01478 -10.180076,-5.48393 4.466959,-4.40982 9.160776,-7.91516 13.742578,-11.8728 3.28,1.29957 6.22253,3.3925 9.10553,5.42679"
       id="path72" />
    <path
       inkscape:connector-curvature="0"
       style="fill:#b38a6e;stroke-width:0.47254732"
       d="m 84.131522,235.93517 -10.519828,-5.87899 c 3.90231,-5.03213 8.539396,-10.40169 13.347566,-14.86867 l 10.180093,5.654 -13.007831,15.09366"
       id="path78" />
    <path
       inkscape:connector-curvature="0"
       style="fill:#b38a6e;stroke-width:0.47254732"
       d="m 115.23934,232.15001 c -4.80866,4.86206 -9.3881,9.61166 -13.23513,14.69908 L 87.58256,237.9742 c 3.619694,-4.91965 8.256352,-10.34646 12.95064,-15.20852 l 14.70614,9.38433"
       id="path84" />
    <path
       inkscape:connector-curvature="0"
       style="fill:#b38a6e;stroke-width:0.47254732"
       d="m 130.79087,244.02089 c -4.01664,4.24005 -8.8806,9.21467 -12.21582,14.304 l -13.34946,-9.44147 c 4.1863,-5.08745 8.08859,-10.11913 13.23463,-14.52892 l 12.33065,9.66687"
       id="path86" />
    <path
       inkscape:connector-curvature="0"
       style="fill:#b38a6e;stroke-width:0.47254732"
       d="m 99.966578,249.44807 c -3.223222,4.46705 -7.126928,8.93213 -10.180068,13.56929 -4.863944,-3.61796 -9.729739,-6.33121 -14.87626,-9.44158 2.942571,-4.29726 7.014506,-8.70712 10.12482,-12.94679 l 14.931508,8.81958"
       id="path88" />
    <path
       inkscape:connector-curvature="0"
       style="fill:#231f20;stroke-width:0.47254732"
       d="m 139.1077,279.41232 -2.43267,0.95992 2.43267,-0.95992"
       id="path92" />
  </g>
</svg>
